<svg xmlns="http://www.w3.org/2000/svg" xmlns:xlink="http://www.w3.org/1999/xlink" viewBox="0 0 85 85">
  <defs>
    <style>
      .cls-1 {
        fill: #f012b8;
      }

      .cls-2 {
        filter: url(#Path_31);
      }

      .cls-3 {
        filter: url(#Path_30);
      }

      .cls-4 {
        filter: url(#Path_29);
      }

      .cls-5 {
        filter: url(#Path_28);
      }
    </style>
    <filter id="Path_28" x="25.4" y="17.88" width="51.12" height="47.84" filterUnits="userSpaceOnUse">
      <feOffset dx="3" dy="6" input="SourceAlpha"/>
      <feGaussianBlur stdDeviation="7.5" result="blur"/>
      <feFlood flood-opacity="0.204"/>
      <feComposite operator="in" in2="blur"/>
      <feComposite in="SourceGraphic"/>
    </filter>
    <filter id="Path_29" x="9.16" y="13.8" width="51.76" height="49.2" filterUnits="userSpaceOnUse">
      <feOffset dx="3" dy="6" input="SourceAlpha"/>
      <feGaussianBlur stdDeviation="7.5" result="blur-2"/>
      <feFlood flood-opacity="0.204"/>
      <feComposite operator="in" in2="blur-2"/>
      <feComposite in="SourceGraphic"/>
    </filter>
    <filter id="Path_30" x="0" y="0" width="85" height="85" filterUnits="userSpaceOnUse">
      <feOffset dx="3" dy="6" input="SourceAlpha"/>
      <feGaussianBlur stdDeviation="7.5" result="blur-3"/>
      <feFlood flood-opacity="0.204"/>
      <feComposite operator="in" in2="blur-3"/>
      <feComposite in="SourceGraphic"/>
    </filter>
    <filter id="Path_31" x="9.16" y="21.12" width="52.16" height="50.04" filterUnits="userSpaceOnUse">
      <feOffset dx="3" dy="6" input="SourceAlpha"/>
      <feGaussianBlur stdDeviation="7.5" result="blur-4"/>
      <feFlood flood-opacity="0.204"/>
      <feComposite operator="in" in2="blur-4"/>
      <feComposite in="SourceGraphic"/>
    </filter>
  </defs>
  <g id="behance-01" transform="translate(19.5 16.5)">
    <g class="cls-5" transform="matrix(1, 0, 0, 1, -19.5, -16.5)">
      <path id="Path_28-2" data-name="Path 28" class="cls-1" d="M68.7,45.42a3.167,3.167,0,0,0-2.12-.72,2.977,2.977,0,0,0-2.12.76,3.74,3.74,0,0,0-.96,2.08h6.12A2.842,2.842,0,0,0,68.7,45.42Z" transform="translate(-18.6 -10.32)"/>
    </g>
    <g class="cls-4" transform="matrix(1, 0, 0, 1, -19.5, -16.5)">
      <path id="Path_29-2" data-name="Path 29" class="cls-1" d="M28.9,38.22a1.8,1.8,0,0,0,.76-1.68,1.7,1.7,0,0,0-1-1.76,7.111,7.111,0,0,0-2.24-.28H22.9v4.2h4A3.7,3.7,0,0,0,28.9,38.22Z" transform="translate(5.76 -4.2)"/>
    </g>
    <g class="cls-3" transform="matrix(1, 0, 0, 1, -19.5, -16.5)">
      <path id="Path_30-2" data-name="Path 30" class="cls-1" d="M35.76,0H4.24A4.268,4.268,0,0,0,0,4.24V35.76A4.268,4.268,0,0,0,4.24,40H35.76A4.268,4.268,0,0,0,40,35.76V4.24A4.268,4.268,0,0,0,35.76,0ZM24.64,11.32h7.64V13.2H24.64ZM19.48,26.76a5.237,5.237,0,0,1-1.32,1.48,4.9,4.9,0,0,1-2.12.96,14.21,14.21,0,0,1-2.68.24H4.8V10.52h9.16c2.32.04,3.92.72,4.92,2a4.918,4.918,0,0,1,.88,2.88,4.2,4.2,0,0,1-.88,2.8,4.236,4.236,0,0,1-1.44,1.08,4.473,4.473,0,0,1,2.2,1.68,5.065,5.065,0,0,1,.72,2.76A5.886,5.886,0,0,1,19.48,26.76ZM35.2,23.08H25.32a3.282,3.282,0,0,0,1.4,2.88,3.415,3.415,0,0,0,1.96.52,2.782,2.782,0,0,0,2.68-1.56h3.6a4.137,4.137,0,0,1-1.32,2.44,6.575,6.575,0,0,1-5.12,1.96,7.288,7.288,0,0,1-4.76-1.68c-1.36-1.12-2.08-2.92-2.08-5.44a7.321,7.321,0,0,1,1.88-5.4,6.6,6.6,0,0,1,4.84-1.88,7.626,7.626,0,0,1,3.2.64,5.672,5.672,0,0,1,2.36,2,6.616,6.616,0,0,1,1.08,2.8A10.726,10.726,0,0,1,35.2,23.08Z" transform="translate(19.5 16.5)"/>
    </g>
    <g class="cls-2" transform="matrix(1, 0, 0, 1, -19.5, -16.5)">
      <path id="Path_31-2" data-name="Path 31" class="cls-1" d="M28.86,53.12a4.681,4.681,0,0,0-1.88-.32H22.9v5.04h4a4.9,4.9,0,0,0,1.92-.32,2.354,2.354,0,0,0,1.24-2.36A2.028,2.028,0,0,0,28.86,53.12Z" transform="translate(5.76 -15.18)"/>
    </g>
  </g>
</svg>
