<svg xmlns="http://www.w3.org/2000/svg" xmlns:xlink="http://www.w3.org/1999/xlink" viewBox="0 0 85 85">
  <defs>
    <style>
      .cls-1 {
        fill: #f012b8;
      }

      .cls-2 {
        filter: url(#Path_34);
      }

      .cls-3 {
        filter: url(#Path_33);
      }

      .cls-4 {
        filter: url(#Path_32);
      }
    </style>
    <filter id="Path_32" x="0" y="0" width="85" height="85" filterUnits="userSpaceOnUse">
      <feOffset dx="3" dy="6" input="SourceAlpha"/>
      <feGaussianBlur stdDeviation="7.5" result="blur"/>
      <feFlood flood-opacity="0.2"/>
      <feComposite operator="in" in2="blur"/>
      <feComposite in="SourceGraphic"/>
    </filter>
    <filter id="Path_33" x="7.96" y="7.8" width="69.08" height="69.08" filterUnits="userSpaceOnUse">
      <feOffset dx="3" dy="6" input="SourceAlpha"/>
      <feGaussianBlur stdDeviation="7.5" result="blur-2"/>
      <feFlood flood-opacity="0.2"/>
      <feComposite operator="in" in2="blur-2"/>
      <feComposite in="SourceGraphic"/>
    </filter>
    <filter id="Path_34" x="15.04" y="14.88" width="54.92" height="54.92" filterUnits="userSpaceOnUse">
      <feOffset dx="3" dy="6" input="SourceAlpha"/>
      <feGaussianBlur stdDeviation="7.5" result="blur-3"/>
      <feFlood flood-opacity="0.2"/>
      <feComposite operator="in" in2="blur-3"/>
      <feComposite in="SourceGraphic"/>
    </filter>
  </defs>
  <g id="insta-01" transform="translate(19.5 16.5)">
    <g class="cls-4" transform="matrix(1, 0, 0, 1, -19.5, -16.5)">
      <path id="Path_32-2" data-name="Path 32" class="cls-1" d="M35.76,0H4.24A4.268,4.268,0,0,0,0,4.24V35.76A4.268,4.268,0,0,0,4.24,40H35.76A4.268,4.268,0,0,0,40,35.76V4.24A4.268,4.268,0,0,0,35.76,0ZM34.64,26.4a8.109,8.109,0,0,1-8.08,8.08H13.44A8.109,8.109,0,0,1,5.36,26.4V13.28A8.109,8.109,0,0,1,13.44,5.2H26.56a8.109,8.109,0,0,1,8.08,8.08V26.4Z" transform="translate(19.5 16.5)"/>
    </g>
    <g class="cls-3" transform="matrix(1, 0, 0, 1, -19.5, -16.5)">
      <path id="Path_33-2" data-name="Path 33" class="cls-1" d="M43.98,24.98A5.463,5.463,0,0,0,38.5,19.5H25.38a5.463,5.463,0,0,0-5.48,5.48V38.1a5.463,5.463,0,0,0,5.48,5.48H38.5a5.463,5.463,0,0,0,5.48-5.48h0V24.98ZM31.94,39.1a7.56,7.56,0,1,1,7.56-7.56A7.58,7.58,0,0,1,31.94,39.1Zm9.2-14.04a1.931,1.931,0,1,1,.56-1.36A1.9,1.9,0,0,1,41.14,25.06Z" transform="translate(7.56 4.8)"/>
    </g>
    <g class="cls-2" transform="matrix(1, 0, 0, 1, -19.5, -16.5)">
      <path id="Path_34-2" data-name="Path 34" class="cls-1" d="M42.56,37.2a4.96,4.96,0,1,0,4.96,4.96A4.959,4.959,0,0,0,42.56,37.2Z" transform="translate(-3.06 -5.82)"/>
    </g>
  </g>
</svg>
