<svg xmlns="http://www.w3.org/2000/svg" xmlns:xlink="http://www.w3.org/1999/xlink" viewBox="0 0 85 85">
  <defs>
    <style>
      .cls-1 {
        fill: #f012b8;
      }

      .cls-2 {
        filter: url(#Path_36);
      }

      .cls-3 {
        filter: url(#Path_35);
      }
    </style>
    <filter id="Path_35" x="21.622" y="17.96" width="45.018" height="45.04" filterUnits="userSpaceOnUse">
      <feOffset dx="3" dy="6" input="SourceAlpha"/>
      <feGaussianBlur stdDeviation="7.5" result="blur"/>
      <feFlood flood-opacity="0.2"/>
      <feComposite operator="in" in2="blur"/>
      <feComposite in="SourceGraphic"/>
    </filter>
    <filter id="Path_36" x="0" y="0" width="85" height="85" filterUnits="userSpaceOnUse">
      <feOffset dx="3" dy="6" input="SourceAlpha"/>
      <feGaussianBlur stdDeviation="7.5" result="blur-2"/>
      <feFlood flood-opacity="0.2"/>
      <feComposite operator="in" in2="blur-2"/>
      <feComposite in="SourceGraphic"/>
    </filter>
  </defs>
  <g id="linky-01" transform="translate(19.5 16.5)">
    <g class="cls-3" transform="matrix(1, 0, 0, 1, -19.5, -16.5)">
      <path id="Path_35-2" data-name="Path 35" class="cls-1" d="M54.073,44.94V44.9s-.04,0,0,.04Z" transform="translate(-12.93 -10.44)"/>
    </g>
    <g class="cls-2" transform="matrix(1, 0, 0, 1, -19.5, -16.5)">
      <path id="Path_36-2" data-name="Path 36" class="cls-1" d="M35.76,0H4.24A4.268,4.268,0,0,0,0,4.24V35.76A4.268,4.268,0,0,0,4.24,40H35.76A4.268,4.268,0,0,0,40,35.76V4.24A4.268,4.268,0,0,0,35.76,0ZM12.56,33.04H6.72V15.44h5.84Zm-2.92-20h0a3.05,3.05,0,1,1,.04-6.08,3.05,3.05,0,1,1-.04,6.08Zm24,20H27.8v-9.4c0-2.36-.84-3.96-2.96-3.96a3.234,3.234,0,0,0-3,2.12,3.792,3.792,0,0,0-.2,1.44v9.8H15.8s.08-15.92,0-17.56h5.84v2.48a5.785,5.785,0,0,1,5.28-2.92c3.84,0,6.72,2.52,6.72,7.92V33.04Z" transform="translate(19.5 16.5)"/>
    </g>
  </g>
</svg>
