<svg xmlns="http://www.w3.org/2000/svg" xmlns:xlink="http://www.w3.org/1999/xlink" viewBox="0 0 85 85">
  <defs>
    <style>
      .cls-1 {
        fill: #34efff;
      }

      .cls-2 {
        filter: url(#Path_40);
      }

      .cls-3 {
        filter: url(#Path_39);
      }

      .cls-4 {
        filter: url(#Path_38);
      }

      .cls-5 {
        filter: url(#Path_37);
      }
    </style>
    <filter id="Path_37" x="21.84" y="25.04" width="47.64" height="48.44" filterUnits="userSpaceOnUse">
      <feOffset dx="3" dy="6" input="SourceAlpha"/>
      <feGaussianBlur stdDeviation="7.5" result="blur"/>
      <feFlood flood-opacity="0.2"/>
      <feComposite operator="in" in2="blur"/>
      <feComposite in="SourceGraphic"/>
    </filter>
    <filter id="Path_38" x="18.36" y="12.32" width="55.56" height="60.32" filterUnits="userSpaceOnUse">
      <feOffset dx="3" dy="6" input="SourceAlpha"/>
      <feGaussianBlur stdDeviation="7.5" result="blur-2"/>
      <feFlood flood-opacity="0.2"/>
      <feComposite operator="in" in2="blur-2"/>
      <feComposite in="SourceGraphic"/>
    </filter>
    <filter id="Path_39" x="22.16" y="8.52" width="55.72" height="63.76" filterUnits="userSpaceOnUse">
      <feOffset dx="3" dy="6" input="SourceAlpha"/>
      <feGaussianBlur stdDeviation="7.5" result="blur-3"/>
      <feFlood flood-opacity="0.2"/>
      <feComposite operator="in" in2="blur-3"/>
      <feComposite in="SourceGraphic"/>
    </filter>
    <filter id="Path_40" x="0" y="0" width="85" height="85" filterUnits="userSpaceOnUse">
      <feOffset dx="3" dy="6" input="SourceAlpha"/>
      <feGaussianBlur stdDeviation="7.5" result="blur-4"/>
      <feFlood flood-opacity="0.2"/>
      <feComposite operator="in" in2="blur-4"/>
      <feComposite in="SourceGraphic"/>
    </filter>
  </defs>
  <g id="mail-01" transform="translate(19.5 16.5)">
    <g class="cls-5" transform="matrix(1, 0, 0, 1, -19.5, -16.5)">
      <path id="Path_37-2" data-name="Path 37" class="cls-1" d="M54.6,66.04l2.64-2.64-2.64-.8Z" transform="translate(-13.26 -21.06)"/>
    </g>
    <g class="cls-4" transform="matrix(1, 0, 0, 1, -19.5, -16.5)">
      <path id="Path_38-2" data-name="Path 38" class="cls-1" d="M45.9,41.76l2.4,4.36V42.8a.941.941,0,0,1,.08-.32L56.46,30.8Z" transform="translate(-8.04 -1.98)"/>
    </g>
    <g class="cls-3" transform="matrix(1, 0, 0, 1, -19.5, -16.5)">
      <path id="Path_39-2" data-name="Path 39" class="cls-1" d="M66.12,40.06V21.3L55.4,36.78Z" transform="translate(-13.74 3.72)"/>
    </g>
    <g class="cls-2" transform="matrix(1, 0, 0, 1, -19.5, -16.5)">
      <path id="Path_40-2" data-name="Path 40" class="cls-1" d="M35.76,0H4.24A4.268,4.268,0,0,0,0,4.24V35.76A4.268,4.268,0,0,0,4.24,40H35.76A4.268,4.268,0,0,0,40,35.76V4.24A4.268,4.268,0,0,0,35.76,0ZM20.72,13.48a.58.58,0,1,1-.16.4A.611.611,0,0,1,20.72,13.48ZM8.24,32.56,7,33.8a.58.58,0,0,1-.8,0,.556.556,0,0,1,0-.76L7.44,31.8a.556.556,0,0,1,.76,0A.52.52,0,0,1,8.24,32.56ZM9.52,31a.573.573,0,0,1-.4-.16.556.556,0,0,1,0-.76L14.2,25a.537.537,0,1,1,.76.76L9.92,30.84A.514.514,0,0,1,9.52,31Zm4.32,2.76a.58.58,0,1,1,.16-.4A.611.611,0,0,1,13.84,33.76Zm4.04-4.04L15.2,32.4a.58.58,0,0,1-.8,0,.556.556,0,0,1,0-.76l2.68-2.68a.556.556,0,0,1,.76,0A.52.52,0,0,1,17.88,29.72Zm9.32-.2-2.72,2.72a.514.514,0,0,1-.4.16.573.573,0,0,1-.4-.16.556.556,0,0,1,0-.76l2.72-2.72a.556.556,0,0,1,.76,0A.52.52,0,0,1,27.2,29.52ZM33.96,28a.553.553,0,0,1-.24.44.454.454,0,0,1-.32.12.24.24,0,0,1-.16-.04L25.68,26.2l-4.04,3.92a.514.514,0,0,1-.4.16.3.3,0,0,1-.2-.04A.361.361,0,0,1,20.8,30h0l-3.48-6.36L9.4,21.2a.629.629,0,0,1-.4-.44.484.484,0,0,1,.28-.52L19,14.48a.556.556,0,0,1,.56.96l-8.68,5.12,6.64,2.04L30.88,8.76l-7.2,4.2a.556.556,0,1,1-.56-.96l10-5.92a.56.56,0,0,1,.84.48Z" transform="translate(19.5 16.5)"/>
    </g>
  </g>
</svg>
