<svg xmlns="http://www.w3.org/2000/svg" xmlns:xlink="http://www.w3.org/1999/xlink" viewBox="0 0 85 85">
  <defs>
    <style>
      .cls-1 {
        fill: #34efff;
      }

      .cls-2 {
        filter: url(#phone-01);
      }
    </style>
    <filter id="phone-01" x="0" y="0" width="85" height="85" filterUnits="userSpaceOnUse">
      <feOffset dx="3" dy="6" input="SourceAlpha"/>
      <feGaussianBlur stdDeviation="7.5" result="blur"/>
      <feFlood flood-opacity="0.2"/>
      <feComposite operator="in" in2="blur"/>
      <feComposite in="SourceGraphic"/>
    </filter>
  </defs>
  <g class="cls-2" transform="matrix(1, 0, 0, 1, 0, 0)">
    <path id="phone-01-2" data-name="phone-01" class="cls-1" d="M35.76,0H4.24A4.268,4.268,0,0,0,0,4.24V35.76A4.268,4.268,0,0,0,4.24,40H35.76A4.268,4.268,0,0,0,40,35.76V4.24A4.268,4.268,0,0,0,35.76,0ZM30.24,30.48c-.6.6-1.24,1.2-1.84,1.84a3.6,3.6,0,0,1-3.08,1.16,12.492,12.492,0,0,1-4.92-1.44,26.674,26.674,0,0,1-8.84-6.92,23.975,23.975,0,0,1-4.32-7.2,9.115,9.115,0,0,1-.72-4,3.271,3.271,0,0,1,1.04-2.2c.68-.64,1.32-1.32,2-2a1.9,1.9,0,0,1,2.88,0c.56.52,1.08,1.08,1.6,1.6l1.56,1.56a1.89,1.89,0,0,1,0,2.92c-.64.68-1.32,1.32-1.96,1.96a.436.436,0,0,0-.12.52,11.992,11.992,0,0,0,1.8,2.88,21.7,21.7,0,0,0,5,4.56c.4.24.88.44,1.32.68.2.12.36.08.56-.12.64-.68,1.32-1.32,2-2a1.9,1.9,0,0,1,2.88,0c1.08,1.08,2.16,2.12,3.2,3.2A2.034,2.034,0,0,1,30.24,30.48ZM19.88,13.96l.28-2.08a9.345,9.345,0,0,1,7.88,7.64l-2.08.36a7.19,7.19,0,0,0-6.08-5.92Zm11.56,5.56a13.356,13.356,0,0,0-3.72-7.16A13.122,13.122,0,0,0,20.16,8.6l.28-2.08a15.15,15.15,0,0,1,8.76,4.36,15.525,15.525,0,0,1,4.32,8.32Z" transform="translate(19.5 16.5)"/>
  </g>
</svg>
